REM DIRINDEX 1\2\6,1\2\7,1\2\8,1\2\9,1\3\10,1\3\11,1\4\12,1\4\13,1\4\14,1\5\15,1\5\16,1\5\17
REM DIRNAME cjc020,folder01,folder02,folder03,folder04,folder05,folder06,folder07,folder08,folder09,folder10,folder11,folder12,folder13,folder14,folder15,folder16
TITLE ""
FILE "1900_2_sec11_1067_1083.mp3" MP3
  TRACK 01 AUDIO
    TITLE "0:"
    INDEX 01 00:00:00
  TRACK 02 AUDIO
    TITLE "13:cjc020_4263"
    INDEX 01 00:00:17
  TRACK 03 AUDIO
    TITLE "0:"
    INDEX 01 00:01:22
  TRACK 04 AUDIO
    TITLE "14:cjc020_4264"
    INDEX 01 00:01:26
  TRACK 05 AUDIO
    TITLE "0:"
    INDEX 01 00:03:55
  TRACK 06 AUDIO
    TITLE "13:cjc020_4265"
    INDEX 01 00:04:36
  TRACK 07 AUDIO
    TITLE "0:"
    INDEX 01 00:05:32
  TRACK 08 AUDIO
    TITLE "14:cjc020_4266"
    INDEX 01 00:05:38
  TRACK 09 AUDIO
    TITLE "0:"
    INDEX 01 00:08:60
  TRACK 10 AUDIO
    TITLE "13:cjc020_4267"
    INDEX 01 00:09:38
  TRACK 11 AUDIO
    TITLE "0:"
    INDEX 01 00:10:41
  TRACK 12 AUDIO
    TITLE "14:cjc020_4268"
    INDEX 01 00:10:43
  TRACK 13 AUDIO
    TITLE "0:"
    INDEX 01 00:12:56
  TRACK 14 AUDIO
    TITLE "13:cjc020_4269"
    INDEX 01 00:13:37
  TRACK 15 AUDIO
    TITLE "0:"
    INDEX 01 00:14:49
  TRACK 16 AUDIO
    TITLE "14:cjc020_4270"
    INDEX 01 00:14:53
  TRACK 17 AUDIO
    TITLE "0:"
    INDEX 01 00:15:64
  TRACK 18 AUDIO
    TITLE "13:cjc020_4271"
    INDEX 01 00:16:46
  TRACK 19 AUDIO
    TITLE "0:"
    INDEX 01 00:17:41
  TRACK 20 AUDIO
    TITLE "14:cjc020_4272"
    INDEX 01 00:17:43
  TRACK 21 AUDIO
    TITLE "0:"
    INDEX 01 00:21:41
  TRACK 22 AUDIO
    TITLE "13:cjc020_4273"
    INDEX 01 00:22:21
  TRACK 23 AUDIO
    TITLE "0:"
    INDEX 01 00:23:30
  TRACK 24 AUDIO
    TITLE "14:cjc020_4274"
    INDEX 01 00:23:34
  TRACK 25 AUDIO
    TITLE "0:"
    INDEX 01 00:26:42
  TRACK 26 AUDIO
    TITLE "13:cjc020_4275"
    INDEX 01 00:27:20
  TRACK 27 AUDIO
    TITLE "0:"
    INDEX 01 00:28:45
  TRACK 28 AUDIO
    TITLE "14:cjc020_4276"
    INDEX 01 00:28:51
  TRACK 29 AUDIO
    TITLE "0:"
    INDEX 01 00:29:66
  TRACK 30 AUDIO
    TITLE "13:cjc020_4277"
    INDEX 01 00:30:44
  TRACK 31 AUDIO
    TITLE "0:"
    INDEX 01 00:31:47
  TRACK 32 AUDIO
    TITLE "14:cjc020_4278"
    INDEX 01 00:31:49
  TRACK 33 AUDIO
    TITLE "0:"
    INDEX 01 00:34:08
  TRACK 34 AUDIO
    TITLE "13:cjc020_4279"
    INDEX 01 00:34:63
  TRACK 35 AUDIO
    TITLE "0:"
    INDEX 01 00:36:09
  TRACK 36 AUDIO
    TITLE "14:cjc020_4280"
    INDEX 01 00:36:15
  TRACK 37 AUDIO
    TITLE "0:"
    INDEX 01 00:39:11
  TRACK 38 AUDIO
    TITLE "13:cjc020_4281"
    INDEX 01 00:39:66
  TRACK 39 AUDIO
    TITLE "0:"
    INDEX 01 00:40:64
  TRACK 40 AUDIO
    TITLE "14:cjc020_4282"
    INDEX 01 00:40:68
  TRACK 41 AUDIO
    TITLE "0:"
    INDEX 01 00:43:23
  TRACK 42 AUDIO
    TITLE "13:cjc020_4283"
    INDEX 01 00:44:03
  TRACK 43 AUDIO
    TITLE "0:"
    INDEX 01 00:45:02
  TRACK 44 AUDIO
    TITLE "14:cjc020_4284"
    INDEX 01 00:45:06
  TRACK 45 AUDIO
    TITLE "0:"
    INDEX 01 00:50:15
  TRACK 46 AUDIO
    TITLE "13:cjc020_4285"
    INDEX 01 00:50:68
  TRACK 47 AUDIO
    TITLE "0:"
    INDEX 01 00:51:73
  TRACK 48 AUDIO
    TITLE "14:cjc020_4286"
    INDEX 01 00:52:04
  TRACK 49 AUDIO
    TITLE "0:"
    INDEX 01 00:55:61
  TRACK 50 AUDIO
    TITLE "12:cjc020_4287"
    INDEX 01 00:57:35
  TRACK 51 AUDIO
    TITLE "0:"
    INDEX 01 00:59:04
  TRACK 52 AUDIO
    TITLE "13:cjc020_4288"
    INDEX 01 01:00:04
  TRACK 53 AUDIO
    TITLE "0:"
    INDEX 01 01:01:11
  TRACK 54 AUDIO
    TITLE "14:cjc020_4289"
    INDEX 01 01:01:15
  TRACK 55 AUDIO
    TITLE "0:"
    INDEX 01 01:05:11
  TRACK 56 AUDIO
    TITLE "13:cjc020_4290"
    INDEX 01 01:05:68
  TRACK 57 AUDIO
    TITLE "0:"
    INDEX 01 01:07:00
  TRACK 58 AUDIO
    TITLE "14:cjc020_4291"
    INDEX 01 01:07:04
  TRACK 59 AUDIO
    TITLE "0:"
    INDEX 01 01:11:19
  TRACK 60 AUDIO
    TITLE "13:cjc020_4292"
    INDEX 01 01:11:74
  TRACK 61 AUDIO
    TITLE "0:"
    INDEX 01 01:13:06
  TRACK 62 AUDIO
    TITLE "14:cjc020_4293"
    INDEX 01 01:13:12
  TRACK 63 AUDIO
    TITLE "0:"
    INDEX 01 01:17:02
  TRACK 64 AUDIO
    TITLE "13:cjc020_4294"
    INDEX 01 01:17:57
  TRACK 65 AUDIO
    TITLE "0:"
    INDEX 01 01:18:72
  TRACK 66 AUDIO
    TITLE "14:cjc020_4295"
    INDEX 01 01:19:01
  TRACK 67 AUDIO
    TITLE "0:"
    INDEX 01 01:22:50
  TRACK 68 AUDIO
    TITLE "13:cjc020_4296"
    INDEX 01 01:23:30
  TRACK 69 AUDIO
    TITLE "0:"
    INDEX 01 01:24:36
  TRACK 70 AUDIO
    TITLE "14:cjc020_4297"
    INDEX 01 01:24:41
  TRACK 71 AUDIO
    TITLE "0:"
    INDEX 01 01:26:70
